<?xml version="1.0" encoding="UTF-8" standalone="no"?>
<!-- Generator: Adobe Illustrator 13.0.2, SVG Export Plug-In  -->

<svg
   version="1.1"
   x="0px"
   y="0px"
   width="200"
   height="200"
   viewBox="-0.014 0.028 200 200"
   enable-background="new -0.014 0.028 540 525"
   xml:space="preserve"
   id="svg2"
   sodipodi:docname="csh-tile.svg"
   inkscape:version="1.3.2 (091e20ef0f, 2023-11-25, custom)"
   xmlns:inkscape="http://www.inkscape.org/namespaces/inkscape"
   xmlns:sodipodi="http://sodipodi.sourceforge.net/DTD/sodipodi-0.dtd"
   xmlns="http://www.w3.org/2000/svg"
   xmlns:svg="http://www.w3.org/2000/svg"><sodipodi:namedview
   id="namedview2"
   pagecolor="#ffffff"
   bordercolor="#000000"
   borderopacity="0.25"
   inkscape:showpageshadow="2"
   inkscape:pageopacity="0.0"
   inkscape:pagecheckerboard="0"
   inkscape:deskcolor="#d1d1d1"
   inkscape:zoom="1.9794985"
   inkscape:cx="-136.65077"
   inkscape:cy="209.64906"
   inkscape:window-width="2560"
   inkscape:window-height="1372"
   inkscape:window-x="1920"
   inkscape:window-y="32"
   inkscape:window-maximized="1"
   inkscape:current-layer="layer3" />
<defs
   id="defs1">
</defs>



<g
   inkscape:groupmode="layer"
   id="layer3"
   inkscape:label="Main"><path
     fill-rule="evenodd"
     clip-rule="evenodd"
     d="m 74.805834,34.654571 4.0103,-15.2302 c 0.63284,-2.40332 -0.80264,-4.86453 -3.20567,-5.49729 L 23.392665,0.1774405 c -2.403331,-0.63283 -4.864468,0.80234998 -5.497287,3.20568 L 0.13541508,70.831122 c -0.632755,2.40304 0.802351,4.86445 3.20567302,5.49729 L 55.558904,90.078065 c 2.40303,0.63273 4.86453,-0.80266 5.49728,-3.205693 l 4.01032,-15.23019 -13.05446,-3.43741 -1.1458,4.35149 c -0.31639,1.20157 -1.54691,1.91927 -2.74865,1.60283 l -30.460383,-8.02063 c -1.20159,-0.31639 -1.919231,-1.54705 -1.602836,-2.74865 L 28.085311,17.699241 c 0.316396,-1.20159 1.547051,-1.91923 2.748643,-1.60285 l 30.46038,8.02064 c 1.20174,0.31643 1.91924,1.54705 1.60285,2.74864 l -1.14581,4.35149 z"
     id="path1-8-7"
     style="stroke-width:0.149994" /><path
     d="m 56.884964,27.609011 -23.933016,-6.30189 c -0.60094,-0.15823 -1.216087,0.20049 -1.374327,0.80143 l -6.015499,22.845431 c -0.158246,0.60095 0.200516,1.21595 0.801454,1.37418 l 14.686258,3.86709 c 0.30039,0.0791 0.47976,0.38691 0.40067,0.68731 l -1.718671,6.52708 c -0.07913,0.3004 -0.386758,0.4798 -0.687162,0.40072 l -5.43949,-1.4323 c -0.300405,-0.0791 -0.479816,-0.38677 -0.400718,-0.68716 l 0.71609,-2.71953 -9.790692,-2.57803 -2.864506,10.87871 c -0.158196,0.60079 0.200481,1.21608 0.801419,1.37432 l 23.93302,6.30188 c 0.60094,0.15829 1.21611,-0.20063 1.37432,-0.80142 l 6.01546,-22.84528 c 0.1583,-0.60095 -0.20047,-1.21609 -0.80141,-1.37433 L 37.901901,40.060131 c -0.300396,-0.0791 -0.479806,-0.38676 -0.400709,-0.68716 l 1.718558,-6.52726 c 0.07913,-0.3004 0.386767,-0.47981 0.687163,-0.40071 l 5.439501,1.43229 c 0.3004,0.0791 0.47981,0.38676 0.40071,0.68716 l -0.71598,2.71972 9.7907,2.57802 2.86455,-10.87886 c 0.1583,-0.60094 -0.20049,-1.21609 -0.80143,-1.37432 z"
     id="path2-7-5"
     style="stroke-width:0.149994" /><polygon
     points="540,525 450,525 450,300 420,300 420,360 330,360 330,165 420,165 420,225 450,225 450,0 540,0 "
     id="polygon2-9-9"
     transform="matrix(0.14504945,0.03819348,-0.03819348,0.14504945,19.041176,-0.9683695)" /><path
     fill-rule="evenodd"
     clip-rule="evenodd"
     d="m 177.41769,138.87549 4.0103,-15.2302 c 0.63284,-2.40332 -0.80264,-4.86453 -3.20567,-5.49729 l -52.2178,-13.74963 c -2.40333,-0.63283 -4.86446,0.80235 -5.49728,3.20567 l -17.75997,67.448 c -0.63275,2.40304 0.80235,4.86445 3.20567,5.49729 l 52.21782,13.74965 c 2.40303,0.63273 4.86453,-0.80266 5.49728,-3.20569 l 4.01032,-15.23019 -13.05446,-3.43741 -1.1458,4.35149 c -0.31639,1.20157 -1.54691,1.91927 -2.74865,1.60283 l -30.46038,-8.02063 c -1.20159,-0.31639 -1.91923,-1.54705 -1.60284,-2.74865 l 12.03094,-45.69057 c 0.3164,-1.20159 1.54705,-1.91923 2.74864,-1.60285 l 30.46038,8.02064 c 1.20174,0.31643 1.91924,1.54705 1.60285,2.74864 l -1.14581,4.35149 z"
     id="path1-8-7-4"
     style="stroke-width:0.149994" /><path
     d="m 159.49682,131.82993 -23.93301,-6.30189 c -0.60094,-0.15823 -1.21609,0.20049 -1.37433,0.80143 l -6.0155,22.84543 c -0.15824,0.60095 0.20052,1.21595 0.80146,1.37418 l 14.68625,3.86709 c 0.30039,0.0791 0.47976,0.38691 0.40067,0.68731 l -1.71867,6.52708 c -0.0791,0.3004 -0.38675,0.4798 -0.68716,0.40072 l -5.43949,-1.4323 c -0.3004,-0.0791 -0.47982,-0.38677 -0.40072,-0.68716 l 0.71609,-2.71953 -9.79069,-2.57803 -2.86451,10.87871 c -0.15819,0.60079 0.20049,1.21608 0.80142,1.37432 l 23.93302,6.30188 c 0.60094,0.15829 1.21611,-0.20063 1.37432,-0.80142 l 6.01546,-22.84528 c 0.1583,-0.60095 -0.20047,-1.21609 -0.80141,-1.37433 l -14.68626,-3.86709 c -0.30039,-0.0791 -0.4798,-0.38676 -0.40071,-0.68716 l 1.71856,-6.52726 c 0.0791,-0.3004 0.38677,-0.47981 0.68716,-0.40071 l 5.4395,1.43229 c 0.3004,0.0791 0.47981,0.38676 0.40071,0.68716 l -0.71598,2.71972 9.7907,2.57802 2.86455,-10.87886 c 0.1583,-0.60094 -0.20049,-1.21609 -0.80143,-1.37432 z"
     id="path2-7-5-5"
     style="stroke-width:0.149994" /><polygon
     points="450,225 450,0 540,0 540,525 450,525 450,300 420,300 420,360 330,360 330,165 420,165 420,225 "
     id="polygon2-9-9-0"
     transform="matrix(0.14504945,0.03819348,-0.03819348,0.14504945,121.65304,103.25256)" /></g></svg>
