<?xml version="1.0" encoding="UTF-8" standalone="no"?>
<!-- Generator: Adobe Illustrator 13.0.2, SVG Export Plug-In  -->

<svg
   version="1.1"
   x="0px"
   y="0px"
   width="200"
   height="200"
   viewBox="-0.014 0.028 200 200"
   enable-background="new -0.014 0.028 540 525"
   xml:space="preserve"
   id="svg2"
   sodipodi:docname="csh-tile.svg"
   inkscape:version="1.3.2 (091e20ef0f, 2023-11-25, custom)"
   xmlns:inkscape="http://www.inkscape.org/namespaces/inkscape"
   xmlns:sodipodi="http://sodipodi.sourceforge.net/DTD/sodipodi-0.dtd"
   xmlns="http://www.w3.org/2000/svg"
   xmlns:svg="http://www.w3.org/2000/svg"><sodipodi:namedview
   id="namedview2"
   pagecolor="#ffffff"
   bordercolor="#000000"
   borderopacity="0.25"
   inkscape:showpageshadow="2"
   inkscape:pageopacity="0.0"
   inkscape:pagecheckerboard="0"
   inkscape:deskcolor="#d1d1d1"
   inkscape:zoom="2.4541111"
   inkscape:cx="51.54616"
   inkscape:cy="122.4476"
   inkscape:window-width="1920"
   inkscape:window-height="1131"
   inkscape:window-x="0"
   inkscape:window-y="0"
   inkscape:window-maximized="1"
   inkscape:current-layer="svg2" />
<defs
   id="defs1">
</defs>
<path
   fill-rule="evenodd"
   clip-rule="evenodd"
   d="m 30.687902,-12.27171 4.010302,-15.2302 c 0.632834,-2.403321 -0.802642,-4.864532 -3.205677,-5.497287 L -20.725266,-46.74884 c -2.403331,-0.632827 -4.864468,0.802351 -5.497287,3.205682 l -17.759963,67.448001 c -0.632755,2.403036 0.802351,4.864449 3.205673,5.497284 L 11.440965,43.15178 c 2.403036,0.632733 4.864533,-0.802659 5.497284,-3.205694 l 4.010319,-15.230182 -13.0544586,-3.437409 -1.145803,4.35148 c -0.316391,1.201577 -1.546905,1.919273 -2.74865,1.602831 L -26.46072,19.212184 c -1.20159,-0.316391 -1.919231,-1.547056 -1.602836,-2.74865 l 12.030936,-45.690576 c 0.316396,-1.201592 1.547051,-1.919233 2.748643,-1.602846 l 30.460377,8.020633 c 1.201744,0.316434 1.919238,1.547054 1.602847,2.748644 l -1.145803,4.351489 z"
   id="path1"
   style="stroke-width:0.149994" />
<path
   d="m 12.767028,-19.317267 -23.933011,-6.30189 c -0.60094,-0.158229 -1.216087,0.200489 -1.374327,0.801427 l -6.015499,22.8454254 c -0.158246,0.6009529 0.200516,1.21595433 0.801454,1.37418387 L -3.0681006,3.2689734 c 0.300396,0.079132 0.479769,0.3869062 0.400673,0.6873021 l -1.71867,6.5270865 c -0.07913,0.300394 -0.386758,0.479797 -0.687162,0.400716 L -10.51275,9.4517777 c -0.300405,-0.079148 -0.479816,-0.3867684 -0.400718,-0.6871626 l 0.71609,-2.7195282 -9.790692,-2.5780257 -2.864506,10.8787078 c -0.158196,0.600788 0.200481,1.216078 0.801419,1.374324 l 23.9330144,6.301876 c 0.60094,0.158296 1.216113,-0.200627 1.374325,-0.801415 l 6.015462,-22.845288 c 0.158297,-0.6009429 -0.200475,-1.2160905 -0.801415,-1.3743218 l -14.686259,-3.8670938 c -0.300396,-0.079132 -0.479806,-0.3867583 -0.400709,-0.6871626 l 1.718558,-6.5272608 c 0.07913,-0.300396 0.386767,-0.479806 0.687163,-0.400709 l 5.4395,1.432289 c 0.300401,0.07911 0.479804,0.386767 0.400706,0.687163 L 0.91321244,-9.6421119 10.703911,-7.0640895 13.56846,-17.94295 c 0.158297,-0.600938 -0.200492,-1.216086 -0.801432,-1.374317 z"
   id="path2"
   style="stroke-width:0.149994" />
<polygon
   points="450,300 420,300 420,360 330,360 330,165 420,165 420,225 450,225 450,0 540,0 540,525 450,525 "
   id="polygon2"
   transform="matrix(0.14504945,0.03819348,-0.03819348,0.14504945,-25.076755,-47.894646)" /><path
   fill-rule="evenodd"
   clip-rule="evenodd"
   d="m 229.31594,-10.445123 4.01031,-15.2302 c 0.63283,-2.403321 -0.80265,-4.864532 -3.20568,-5.497287 l -52.21779,-13.749643 c -2.40334,-0.632827 -4.86447,0.802351 -5.49729,3.205682 L 154.64553,25.73143 c -0.63276,2.403036 0.80235,4.864449 3.20567,5.497284 l 52.21781,13.749653 c 2.40303,0.632733 4.86453,-0.802659 5.49728,-3.205694 l 4.01032,-15.230182 -13.05446,-3.437409 -1.1458,4.35148 c -0.31639,1.201577 -1.54691,1.919273 -2.74865,1.602831 l -30.46038,-8.020622 c -1.20159,-0.316391 -1.91923,-1.547056 -1.60283,-2.74865 l 12.03093,-45.690576 c 0.3164,-1.201592 1.54705,-1.919233 2.74864,-1.602846 l 30.46038,8.020633 c 1.20175,0.316434 1.91924,1.547054 1.60285,2.748644 l -1.1458,4.351489 z"
   id="path1-9"
   style="stroke-width:0.149994" /><path
   d="m 211.39507,-17.49068 -23.93301,-6.30189 c -0.60094,-0.158229 -1.21609,0.200489 -1.37433,0.801427 l -6.0155,22.84542508 c -0.15824,0.600953 0.20052,1.21595502 0.80146,1.37418402 l 14.68625,3.867094 c 0.3004,0.07913 0.47977,0.386907 0.40067,0.687302 l -1.71867,6.5270869 c -0.0791,0.300394 -0.38675,0.479797 -0.68716,0.400716 l -5.43949,-1.4323 c -0.3004,-0.07915 -0.47981,-0.386769 -0.40072,-0.687163 l 0.71609,-2.7195279 -9.79069,-2.578026 -2.8645,10.8787079 c -0.1582,0.600788 0.20048,1.216078 0.80141,1.374324 l 23.93302,6.301876 c 0.60094,0.158296 1.21611,-0.200627 1.37432,-0.801415 l 6.01547,-22.84528792 c 0.15829,-0.600943 -0.20048,-1.21609098 -0.80142,-1.37432198 l -14.68626,-3.867094 c -0.30039,-0.07913 -0.4798,-0.386758 -0.40071,-0.687162 l 1.71856,-6.5272611 c 0.0791,-0.300396 0.38677,-0.479806 0.68716,-0.400709 l 5.4395,1.432289 c 0.3004,0.07911 0.47981,0.386767 0.40071,0.687163 l -0.71598,2.7197181 9.7907,2.578022 2.86455,-10.8788601 c 0.1583,-0.600938 -0.20049,-1.216086 -0.80143,-1.374317 z"
   id="path2-3"
   style="stroke-width:0.149994" /><polygon
   points="540,525 450,525 450,300 420,300 420,360 330,360 330,165 420,165 420,225 450,225 450,0 540,0 "
   id="polygon2-6"
   transform="matrix(0.14504945,0.03819348,-0.03819348,0.14504945,173.55129,-46.068059)" /><path
   fill-rule="evenodd"
   clip-rule="evenodd"
   d="m 30.687902,187.55488 4.010302,-15.2302 c 0.632834,-2.40332 -0.802642,-4.86453 -3.205677,-5.49729 l -52.217793,-13.74964 c -2.403331,-0.63283 -4.864468,0.80235 -5.497287,3.20568 l -17.759963,67.448 c -0.632755,2.40304 0.802351,4.86445 3.205673,5.49729 l 52.217808,13.74965 c 2.403036,0.63273 4.864533,-0.80266 5.497284,-3.20569 l 4.010319,-15.23019 -13.054459,-3.43741 -1.145803,4.35149 c -0.316391,1.20157 -1.546905,1.91927 -2.74865,1.60283 l -30.460376,-8.02063 c -1.20159,-0.31639 -1.919231,-1.54705 -1.602836,-2.74865 l 12.030936,-45.69057 c 0.316396,-1.20159 1.547051,-1.91923 2.748643,-1.60285 l 30.460377,8.02064 c 1.201744,0.31643 1.919238,1.54705 1.602847,2.74864 l -1.145803,4.35149 z"
   id="path1-8"
   style="stroke-width:0.149994" /><path
   d="m 12.767028,180.50932 -23.933011,-6.30189 c -0.60094,-0.15823 -1.216087,0.20049 -1.374327,0.80143 l -6.015499,22.84543 c -0.158246,0.60095 0.200516,1.21595 0.801454,1.37418 l 14.686254,3.86709 c 0.300396,0.0791 0.479769,0.38691 0.400673,0.68731 l -1.71867,6.52708 c -0.07913,0.3004 -0.386758,0.4798 -0.687162,0.40072 l -5.43949,-1.4323 c -0.300405,-0.0791 -0.479816,-0.38677 -0.400718,-0.68716 l 0.71609,-2.71953 -9.790692,-2.57803 -2.864506,10.87871 c -0.158196,0.60079 0.200481,1.21608 0.801419,1.37432 l 23.933014,6.30188 c 0.60094,0.15829 1.216113,-0.20063 1.374325,-0.80142 l 6.015462,-22.84528 c 0.158297,-0.60095 -0.200475,-1.21609 -0.801415,-1.37433 L -6.21603,192.96044 c -0.300396,-0.0791 -0.479806,-0.38676 -0.400709,-0.68716 l 1.718558,-6.52726 c 0.07913,-0.3004 0.386767,-0.47981 0.687163,-0.40071 l 5.4395,1.43229 c 0.300401,0.0791 0.479804,0.38676 0.400706,0.68716 l -0.715976,2.71972 9.790699,2.57802 2.864549,-10.87886 c 0.158297,-0.60094 -0.200492,-1.21609 -0.801432,-1.37432 z"
   id="path2-7"
   style="stroke-width:0.149994" /><polygon
   points="450,0 540,0 540,525 450,525 450,300 420,300 420,360 330,360 330,165 420,165 420,225 450,225 "
   id="polygon2-9"
   transform="matrix(0.14504945,0.03819348,-0.03819348,0.14504945,-25.076755,151.93194)" /><path
   fill-rule="evenodd"
   clip-rule="evenodd"
   d="m 128.28851,89.775809 4.0103,-15.2302 c 0.63284,-2.40332 -0.80264,-4.86453 -3.20567,-5.49729 L 76.875341,55.298679 c -2.403331,-0.63283 -4.864468,0.80235 -5.497287,3.20568 L 53.618091,125.95236 c -0.632755,2.40304 0.802351,4.86445 3.205673,5.49729 l 52.217816,13.74965 c 2.40303,0.63273 4.86453,-0.80266 5.49728,-3.20569 l 4.01032,-15.23019 -13.05446,-3.43741 -1.1458,4.35149 c -0.31639,1.20157 -1.54691,1.91927 -2.74865,1.60283 L 71.139887,121.2597 c -1.20159,-0.31639 -1.919231,-1.54705 -1.602836,-2.74865 L 81.567987,72.820479 c 0.316396,-1.20159 1.547051,-1.91923 2.748643,-1.60285 l 30.46038,8.02064 c 1.20174,0.31643 1.91924,1.54705 1.60285,2.74864 l -1.14581,4.35149 z"
   id="path1-8-7"
   style="stroke-width:0.149994" /><path
   d="m 110.36764,82.730249 -23.933016,-6.30189 c -0.60094,-0.15823 -1.216087,0.20049 -1.374327,0.80143 l -6.015499,22.845431 c -0.158246,0.60095 0.200516,1.21595 0.801454,1.37418 l 14.686258,3.86709 c 0.30039,0.0791 0.47976,0.38691 0.40067,0.68731 l -1.718671,6.52708 c -0.07913,0.3004 -0.386758,0.4798 -0.687162,0.40072 l -5.43949,-1.4323 c -0.300405,-0.0791 -0.479816,-0.38677 -0.400718,-0.68716 l 0.71609,-2.71953 -9.790692,-2.57803 -2.864506,10.87871 c -0.158196,0.60079 0.200481,1.21608 0.801419,1.37432 l 23.93302,6.30188 c 0.60094,0.15829 1.21611,-0.20063 1.37432,-0.80142 l 6.01546,-22.84528 c 0.1583,-0.60095 -0.20047,-1.21609 -0.80141,-1.37433 L 91.384577,95.181369 c -0.300396,-0.0791 -0.479806,-0.38676 -0.400709,-0.68716 l 1.718558,-6.52726 c 0.07913,-0.3004 0.386767,-0.47981 0.687163,-0.40071 l 5.439501,1.43229 c 0.3004,0.0791 0.47981,0.38676 0.40071,0.68716 l -0.71598,2.71972 9.7907,2.57802 2.86455,-10.87886 c 0.1583,-0.60094 -0.20049,-1.21609 -0.80143,-1.37432 z"
   id="path2-7-5"
   style="stroke-width:0.149994" /><polygon
   points="450,225 450,0 540,0 540,525 450,525 450,300 420,300 420,360 330,360 330,165 420,165 420,225 "
   id="polygon2-9-9"
   transform="matrix(0.14504945,0.03819348,-0.03819348,0.14504945,72.523852,54.152869)" /><path
   fill-rule="evenodd"
   clip-rule="evenodd"
   d="m 229.31594,189.38147 4.01031,-15.2302 c 0.63283,-2.40332 -0.80265,-4.86453 -3.20568,-5.49729 l -52.21779,-13.74964 c -2.40334,-0.63283 -4.86447,0.80235 -5.49729,3.20568 l -17.75996,67.448 c -0.63276,2.40304 0.80235,4.86445 3.20567,5.49728 l 52.21781,13.74966 c 2.40303,0.63273 4.86453,-0.80266 5.49728,-3.2057 l 4.01032,-15.23018 -13.05446,-3.43741 -1.1458,4.35148 c -0.31639,1.20158 -1.54691,1.91928 -2.74865,1.60283 l -30.46038,-8.02062 c -1.20159,-0.31639 -1.91923,-1.54706 -1.60283,-2.74865 l 12.03093,-45.69057 c 0.3164,-1.2016 1.54705,-1.91924 2.74864,-1.60285 l 30.46038,8.02063 c 1.20175,0.31644 1.91924,1.54706 1.60285,2.74865 l -1.1458,4.35149 z"
   id="path1-9-2"
   style="stroke-width:0.149994" /><path
   d="m 211.39507,182.33591 -23.93301,-6.30189 c -0.60094,-0.15823 -1.21609,0.20049 -1.37433,0.80143 l -6.0155,22.84542 c -0.15824,0.60096 0.20052,1.21596 0.80146,1.37419 l 14.68625,3.86709 c 0.3004,0.0791 0.47977,0.38691 0.40067,0.6873 l -1.71867,6.52709 c -0.0791,0.30039 -0.38675,0.4798 -0.68716,0.40071 l -5.43949,-1.43229 c -0.3004,-0.0791 -0.47981,-0.38677 -0.40072,-0.68717 l 0.71609,-2.71953 -9.79069,-2.57802 -2.8645,10.87871 c -0.1582,0.60078 0.20048,1.21607 0.80141,1.37432 l 23.93302,6.30188 c 0.60094,0.15829 1.21611,-0.20063 1.37432,-0.80142 l 6.01547,-22.84529 c 0.15829,-0.60094 -0.20048,-1.21609 -0.80142,-1.37432 l -14.68626,-3.86709 c -0.30039,-0.0791 -0.4798,-0.38676 -0.40071,-0.68716 l 1.71856,-6.52727 c 0.0791,-0.30039 0.38677,-0.4798 0.68716,-0.40071 l 5.4395,1.43229 c 0.3004,0.0791 0.47981,0.38677 0.40071,0.68717 l -0.71598,2.71972 9.7907,2.57802 2.86455,-10.87886 c 0.1583,-0.60094 -0.20049,-1.21609 -0.80143,-1.37432 z"
   id="path2-3-0"
   style="stroke-width:0.149994" /><polygon
   points="420,225 450,225 450,0 540,0 540,525 450,525 450,300 420,300 420,360 330,360 330,165 420,165 "
   id="polygon2-6-2"
   transform="matrix(0.14504945,0.03819348,-0.03819348,0.14504945,173.55129,153.75853)" />
</svg>
